<?xml version="1.0" encoding="iso-8859-1"?>
<!-- Generator: Adobe Illustrator 16.0.0, SVG Export Plug-In . SVG Version: 6.00 Build 0)  -->
<!DOCTYPE svg PUBLIC "-//W3C//DTD SVG 1.1//EN" "http://www.w3.org/Graphics/SVG/1.1/DTD/svg11.dtd">
<svg version="1.1" id="Capa_1" xmlns="http://www.w3.org/2000/svg" xmlns:xlink="http://www.w3.org/1999/xlink" x="0px" y="0px"
	 width="46.023px" height="46.023px" viewBox="0 0 46.023 46.023" style="enable-background:new 0 0 46.023 46.023;"
	 xml:space="preserve">
<g>
	<g>
		<path d="M45.651,20.169L40.726,2.907C40.236,1.196,38.653,0,36.876,0c-0.371,0-0.742,0.052-1.102,0.154l-26.633,7.6
			c-1.029,0.293-1.882,0.97-2.4,1.905C6.228,10.58,6.1,11.69,6.389,12.705l3.382,11.85c0.582,0.213,1.147,0.471,1.671,0.809
			c0.464-0.299,0.961-0.531,1.471-0.734L9.607,13.05l9.107,5.918l-2.679,5.041c0.015,0,0.028-0.003,0.044-0.003
			c1.062,0,2.091,0.199,3.055,0.564l2.105-3.962l2.497,1.623l0.089,0.053c0.792,0.441,1.664,0.665,2.545,0.665
			c0.483,0,0.971-0.067,1.448-0.204c1.35-0.385,2.469-1.272,3.15-2.499l1.31-2.791l8.741,5.08L23.095,27.65
			c0.592,0.838,1.023,1.768,1.282,2.754l18.521-5.285c1.029-0.295,1.882-0.971,2.401-1.905
			C45.82,22.279,45.945,21.197,45.651,20.169z M28.327,18.828c-0.294,0.506-0.766,0.872-1.329,1.033
			c-0.564,0.161-1.156,0.097-1.672-0.176l-14.362-9.331L35.6,3.324L28.327,18.828z M33.561,14.729l4.614-9.831l4.28,15
			L33.561,14.729z"/>
		<path d="M16.081,26.006c-1.678,0-3.355,0.637-4.64,1.911c-1.282-1.272-2.961-1.911-4.639-1.911c-1.686,0-3.372,0.643-4.658,1.93
			c-2.57,2.57-2.57,6.742,0,9.314c0.127,0.125,6.23,6.199,8.478,8.436c0.226,0.226,0.522,0.338,0.818,0.338
			c0.297,0,0.595-0.112,0.82-0.338c2.248-2.236,8.351-8.311,8.477-8.436c2.573-2.572,2.573-6.744,0-9.314
			C19.452,26.648,17.767,26.006,16.081,26.006z"/>
	</g>
</g>
<g>
</g>
<g>
</g>
<g>
</g>
<g>
</g>
<g>
</g>
<g>
</g>
<g>
</g>
<g>
</g>
<g>
</g>
<g>
</g>
<g>
</g>
<g>
</g>
<g>
</g>
<g>
</g>
<g>
</g>
</svg>
